# xmcd
#
# Track frame offsets: 
#        150
#        13007
#        26712
#        38502
#        53010
#        60305
#        77280
#        89372
#        104067
#        116110
#        135240
#        146370
#        157190
#        172105
#        182710
#        193127
#
# Disc length: 2776 seconds
#
# Revision: 0
# Processed by: cddbd v1.5.2PL0 Copyright (c) Steve Scherf et al.
# Submitted via: ExactAudioCopy v0.99pb5
#
DISCID=d10ad610
DTITLE=Various Artist - Music Dreamer vol.1
DYEAR=1900
DGENRE=Country
TTITLE0=Blowing In The Wind
TTITLE1=Both Side Now
TTITLE2=Welcome to My World
TTITLE3=Donna Donna
TTITLE4=All I Have To Do Is Dream
TTITLE5=Carry On Till Tomorrow
TTITLE6=Gone The Rainbow
TTITLE7=Puff
TTITLE8=As Tears Go By
TTITLE9=Streets Of London
TTITLE10=Time In A Bottle
TTITLE11=Evergreen Tree
TTITLE12=Today
TTITLE13=Devoted to You
TTITLE14=Morning Town Ride
TTITLE15=Day is Done
EXTD=
EXTT0=
EXTT1=
EXTT2=
EXTT3=
EXTT4=
EXTT5=
EXTT6=
EXTT7=
EXTT8=
EXTT9=
EXTT10=
EXTT11=
EXTT12=
EXTT13=
EXTT14=
EXTT15=
PLAYORDER=
